<?xml version="1.0" encoding="UTF-8" standalone="no"?>
<!-- Created with Inkscape (http://www.inkscape.org/) -->

<svg
   inkscape:version="1.1 (c68e22c387, 2021-05-23)"
   sodipodi:docname="scale-model-figure.svg"
   id="svg5"
   version="1.1"
   viewBox="0 0 210 297"
   height="297mm"
   width="210mm"
   xmlns:inkscape="http://www.inkscape.org/namespaces/inkscape"
   xmlns:sodipodi="http://sodipodi.sourceforge.net/DTD/sodipodi-0.dtd"
   xmlns="http://www.w3.org/2000/svg"
   xmlns:svg="http://www.w3.org/2000/svg"
   xmlns:ns0="http://www.iki.fi/pav/software/textext/">
  <sodipodi:namedview
     id="namedview7"
     pagecolor="#ffffff"
     bordercolor="#666666"
     borderopacity="1.0"
     inkscape:pageshadow="2"
     inkscape:pageopacity="0.0"
     inkscape:pagecheckerboard="0"
     inkscape:document-units="mm"
     showgrid="false"
     inkscape:zoom="1.350566"
     inkscape:cx="396.50043"
     inkscape:cy="603.45069"
     inkscape:window-width="1280"
     inkscape:window-height="738"
     inkscape:window-x="-6"
     inkscape:window-y="-6"
     inkscape:window-maximized="1"
     inkscape:current-layer="layer1" />
  <defs
     id="defs2" />
  <g
     inkscape:label="Layer 1"
     inkscape:groupmode="layer"
     id="layer1">
    <g
       transform="matrix(0.365741 0 0 0.365741 69.4767 115.982)"
       ns0:version="1.8.2"
       ns0:texconverter="pdflatex"
       ns0:pdfconverter="inkscape"
       ns0:text="\\begin{tikzpicture}\n\\begin{axis}[axis lines=center,ticks = none,xmax=3, xmin=-3,ymax=1.5,x label style={at={(axis description cs:0.5,0)},anchor=north},\n xlabel={$-\\log GM(\\mathbf{W}^{\\parallel}_{\\cdot n})$}]\n\\addplot[thick,black, no markers,samples=200] {exp(-x^2)};\n\\addplot[thick,red, no markers,samples=200] {exp(-x^2/.01)};\n\\end{axis}\n\\end{tikzpicture}"
       ns0:preamble="C:\Users\map5672\OneDrive - The Pennsylvania State University\Documents 1\texText.tex"
       ns0:scale="1.0367445815782164"
       ns0:alignment="middle center"
       ns0:stroke-to-path="0"
       ns0:jacobian_sqrt="0.365741"
       id="g844">
      <defs
         id="id-d116edce-2499-4a7a-aab1-e17ba8e1df9f">
        <g
           id="id-7d23a56a-8ba6-4c9d-a301-d4352896418d">
          <symbol
             overflow="visible"
             id="id-8a21375e-1d2f-4b8a-aa00-1a49d3e7186e">
            <path
               style="stroke:none"
               d=""
               id="id-e11dab37-62f4-4d5e-b802-6400dcfe786c" />
          </symbol>
          <symbol
             overflow="visible"
             id="id-7e17e86f-4ce2-45dd-b3ad-19daad46412d">
            <path
               style="stroke:none"
               d="m 6.5625,-2.296875 c 0.171875,0 0.359375,0 0.359375,-0.203125 0,-0.1875 -0.1875,-0.1875 -0.359375,-0.1875 H 1.171875 c -0.171875,0 -0.34375,0 -0.34375,0.1875 0,0.203125 0.171875,0.203125 0.34375,0.203125 z m 0,0"
               id="id-085ae42e-89ca-4d62-b4a4-78c787268a62" />
          </symbol>
          <symbol
             overflow="visible"
             id="id-e71329c1-3bb9-4dd1-852e-2b9a5c96f58c">
            <path
               style="stroke:none"
               d=""
               id="id-2e4faaae-3c46-4a32-b518-e605a1dc1721" />
          </symbol>
          <symbol
             overflow="visible"
             id="id-91915fbf-3235-4431-ae5f-dc6485ffc5f9">
            <path
               style="stroke:none"
               d="M 1.765625,-6.921875 0.328125,-6.8125 V -6.5 c 0.703125,0 0.78125,0.0625 0.78125,0.5625 V -0.75 c 0,0.4375 -0.109375,0.4375 -0.78125,0.4375 V 0 C 0.65625,-0.015625 1.1875,-0.03125 1.4375,-0.03125 c 0.25,0 0.734375,0.015625 1.109375,0.03125 v -0.3125 c -0.671875,0 -0.78125,0 -0.78125,-0.4375 z m 0,0"
               id="id-388ecd59-8c6a-4380-b495-776c72f9205c" />
          </symbol>
          <symbol
             overflow="visible"
             id="id-68a84400-24fa-4864-9111-d02ef5870bb7">
            <path
               style="stroke:none"
               d="M 4.6875,-2.140625 C 4.6875,-3.40625 3.703125,-4.46875 2.5,-4.46875 c -1.25,0 -2.21875,1.09375 -2.21875,2.328125 0,1.296875 1.03125,2.25 2.203125,2.25 1.203125,0 2.203125,-0.984375 2.203125,-2.25 z m -2.1875,2 c -0.4375,0 -0.875,-0.203125 -1.140625,-0.671875 -0.25,-0.4375 -0.25,-1.046875 -0.25,-1.40625 0,-0.390625 0,-0.921875 0.234375,-1.359375 C 1.609375,-4.03125 2.078125,-4.25 2.484375,-4.25 c 0.4375,0 0.859375,0.21875 1.125,0.65625 0.265625,0.421875 0.265625,1 0.265625,1.375 0,0.359375 0,0.90625 -0.21875,1.34375 C 3.421875,-0.421875 2.984375,-0.140625 2.5,-0.140625 Z m 0,0"
               id="id-ec73821f-198a-402d-a535-a34b756fffeb" />
          </symbol>
          <symbol
             overflow="visible"
             id="id-d0b4c1fe-9e7f-4f19-a056-6eda88f890c3">
            <path
               style="stroke:none"
               d="m 2.21875,-1.71875 c -0.875,0 -0.875,-1 -0.875,-1.21875 0,-0.265625 0.015625,-0.59375 0.15625,-0.84375 0.078125,-0.109375 0.3125,-0.390625 0.71875,-0.390625 0.859375,0 0.859375,0.984375 0.859375,1.21875 0,0.265625 0,0.59375 -0.15625,0.84375 C 2.84375,-2 2.609375,-1.71875 2.21875,-1.71875 Z M 1.0625,-1.328125 c 0,-0.03125 0,-0.265625 0.15625,-0.46875 0.390625,0.28125 0.8125,0.3125 1,0.3125 0.921875,0 1.609375,-0.6875 1.609375,-1.453125 0,-0.375 -0.15625,-0.734375 -0.40625,-0.96875 C 3.78125,-4.25 4.140625,-4.296875 4.3125,-4.296875 c 0.03125,0 0.078125,0 0.109375,0.015625 C 4.3125,-4.25 4.25,-4.140625 4.25,-4.015625 c 0,0.171875 0.140625,0.28125 0.296875,0.28125 0.09375,0 0.28125,-0.0625 0.28125,-0.296875 0,-0.171875 -0.109375,-0.484375 -0.5,-0.484375 -0.203125,0 -0.640625,0.0625 -1.0625,0.46875 C 2.84375,-4.375 2.4375,-4.40625 2.21875,-4.40625 c -0.9375,0 -1.625,0.6875 -1.625,1.453125 0,0.4375 0.21875,0.8125 0.46875,1.03125 -0.125,0.140625 -0.3125,0.46875 -0.3125,0.828125 0,0.3125 0.140625,0.6875 0.453125,0.890625 -0.609375,0.15625 -0.921875,0.59375 -0.921875,0.984375 0,0.71875 0.984375,1.265625 2.203125,1.265625 1.171875,0 2.203125,-0.5 2.203125,-1.28125 0,-0.34375 -0.125,-0.859375 -0.640625,-1.140625 -0.53125,-0.265625 -1.109375,-0.265625 -1.71875,-0.265625 -0.25,0 -0.671875,0 -0.75,-0.015625 C 1.265625,-0.703125 1.0625,-1 1.0625,-1.328125 Z M 2.5,1.828125 c -1.015625,0 -1.703125,-0.515625 -1.703125,-1.046875 0,-0.453125 0.375,-0.828125 0.8125,-0.84375 h 0.59375 c 0.859375,0 1.96875,0 1.96875,0.84375 0,0.546875 -0.703125,1.046875 -1.671875,1.046875 z m 0,0"
               id="id-f80d7622-2af4-420e-955a-82504cf50a72" />
          </symbol>
          <symbol
             overflow="visible"
             id="id-dde7fdd3-531b-485e-8a11-1a84814e33ea">
            <path
               style="stroke:none"
               d="m 3.296875,2.390625 c 0,-0.03125 0,-0.046875 -0.171875,-0.21875 C 1.890625,0.921875 1.5625,-0.96875 1.5625,-2.5 c 0,-1.734375 0.375,-3.46875 1.609375,-4.703125 0.125,-0.125 0.125,-0.140625 0.125,-0.171875 0,-0.078125 -0.03125,-0.109375 -0.09375,-0.109375 -0.109375,0 -1,0.6875 -1.59375,1.953125 -0.5,1.09375 -0.625,2.203125 -0.625,3.03125 0,0.78125 0.109375,1.984375 0.65625,3.125 C 2.25,1.84375 3.09375,2.5 3.203125,2.5 c 0.0625,0 0.09375,-0.03125 0.09375,-0.109375 z m 0,0"
               id="id-65c8f8b5-cd47-4259-8d54-38b39acb0723" />
          </symbol>
          <symbol
             overflow="visible"
             id="id-c815056b-e636-448e-9727-27b79a20e25e">
            <path
               style="stroke:none"
               d="m 2.875,-2.5 c 0,-0.765625 -0.109375,-1.96875 -0.65625,-3.109375 -0.59375,-1.21875 -1.453125,-1.875 -1.546875,-1.875 -0.0625,0 -0.109375,0.046875 -0.109375,0.109375 0,0.03125 0,0.046875 0.1875,0.234375 0.984375,0.984375 1.546875,2.5625 1.546875,4.640625 0,1.71875 -0.359375,3.46875 -1.59375,4.71875 C 0.5625,2.34375 0.5625,2.359375 0.5625,2.390625 0.5625,2.453125 0.609375,2.5 0.671875,2.5 0.765625,2.5 1.671875,1.8125 2.25,0.546875 2.765625,-0.546875 2.875,-1.65625 2.875,-2.5 Z m 0,0"
               id="id-839dbda4-e8f2-4c51-b099-e8a7b02f416a" />
          </symbol>
          <symbol
             overflow="visible"
             id="id-74a07a19-a2d7-4386-8faa-dd51ebaf3da4">
            <path
               style="stroke:none"
               d=""
               id="id-bbd5ebd7-366d-49e6-bd71-8158c4d0f2fd" />
          </symbol>
          <symbol
             overflow="visible"
             id="id-58d30231-222a-422a-a8a8-fdaaae65803e">
            <path
               style="stroke:none"
               d="m 7.578125,-6.921875 c 0,-0.03125 -0.015625,-0.109375 -0.109375,-0.109375 -0.03125,0 -0.046875,0.015625 -0.15625,0.125 L 6.625,-6.140625 C 6.53125,-6.28125 6.078125,-7.03125 4.96875,-7.03125 2.734375,-7.03125 0.5,-4.828125 0.5,-2.515625 c 0,1.59375 1.109375,2.734375 2.71875,2.734375 0.4375,0 0.890625,-0.09375 1.25,-0.234375 0.5,-0.203125 0.6875,-0.40625 0.859375,-0.609375 0.09375,0.25 0.359375,0.609375 0.453125,0.609375 0.046875,0 0.078125,-0.03125 0.078125,-0.03125 C 5.875,-0.0625 5.96875,-0.453125 6.015625,-0.65625 l 0.1875,-0.765625 C 6.25,-1.59375 6.296875,-1.765625 6.34375,-1.9375 c 0.109375,-0.4375 0.109375,-0.46875 0.6875,-0.46875 0.046875,0 0.15625,-0.015625 0.15625,-0.203125 0,-0.078125 -0.046875,-0.109375 -0.125,-0.109375 -0.234375,0 -0.828125,0.03125 -1.046875,0.03125 -0.3125,0 -1.09375,-0.03125 -1.40625,-0.03125 -0.078125,0 -0.203125,0 -0.203125,0.203125 0,0.109375 0.078125,0.109375 0.296875,0.109375 0.015625,0 0.296875,0 0.53125,0.015625 0.265625,0.03125 0.3125,0.0625 0.3125,0.1875 0,0.09375 -0.109375,0.53125 -0.21875,0.90625 -0.28125,1.09375 -1.5625,1.203125 -1.921875,1.203125 -0.953125,0 -2,-0.5625 -2,-2.09375 0,-0.3125 0.09375,-1.953125 1.140625,-3.25 0.546875,-0.671875 1.515625,-1.28125 2.5,-1.28125 1.015625,0 1.609375,0.765625 1.609375,1.921875 0,0.40625 -0.03125,0.40625 -0.03125,0.515625 0,0.09375 0.109375,0.09375 0.140625,0.09375 0.125,0 0.125,-0.015625 0.1875,-0.203125 z m 0,0"
               id="id-2ac94bb8-e37a-4ad6-93ce-cda45f0f10e6" />
          </symbol>
          <symbol
             overflow="visible"
             id="id-f0cfc65e-5183-4465-bc13-7e79e52ef2fe">
            <path
               style="stroke:none"
               d="M 9.234375,-6.046875 C 9.328125,-6.40625 9.34375,-6.5 10.09375,-6.5 c 0.21875,0 0.3125,0 0.3125,-0.203125 0,-0.109375 -0.09375,-0.109375 -0.265625,-0.109375 h -1.3125 c -0.265625,0 -0.28125,0 -0.390625,0.1875 L 4.796875,-0.9375 4.015625,-6.578125 C 3.984375,-6.8125 3.96875,-6.8125 3.703125,-6.8125 H 2.34375 c -0.1875,0 -0.296875,0 -0.296875,0.1875 0,0.125 0.09375,0.125 0.28125,0.125 0.140625,0 0.3125,0.015625 0.4375,0.015625 0.15625,0.03125 0.21875,0.046875 0.21875,0.171875 0,0.03125 -0.015625,0.0625 -0.046875,0.1875 l -1.265625,5.0625 c -0.09375,0.40625 -0.265625,0.71875 -1.078125,0.75 -0.046875,0 -0.171875,0.015625 -0.171875,0.1875 0,0.09375 0.0625,0.125 0.140625,0.125 0.3125,0 0.65625,-0.03125 1,-0.03125 C 1.890625,-0.03125 2.25,0 2.578125,0 c 0.046875,0 0.1875,0 0.1875,-0.203125 0,-0.109375 -0.109375,-0.109375 -0.1875,-0.109375 -0.5625,0 -0.671875,-0.203125 -0.671875,-0.4375 0,-0.0625 0,-0.125 0.03125,-0.234375 L 3.296875,-6.40625 H 3.3125 l 0.859375,6.171875 C 4.1875,-0.109375 4.203125,0 4.3125,0 4.421875,0 4.484375,-0.109375 4.53125,-0.171875 l 4.03125,-6.3125 h 0.015625 l -1.4375,5.703125 c -0.09375,0.390625 -0.109375,0.46875 -0.90625,0.46875 -0.15625,0 -0.265625,0 -0.265625,0.1875 C 5.96875,0 6.078125,0 6.109375,0 6.390625,0 7.0625,-0.03125 7.34375,-0.03125 7.75,-0.03125 8.1875,0 8.59375,0 8.65625,0 8.78125,0 8.78125,-0.203125 8.78125,-0.3125 8.6875,-0.3125 8.5,-0.3125 c -0.359375,0 -0.640625,0 -0.640625,-0.171875 0,-0.046875 0,-0.0625 0.046875,-0.25 z m 0,0"
               id="id-2ab8f8ac-29f5-4680-adf4-7c532b4db96f" />
          </symbol>
          <symbol
             overflow="visible"
             id="id-30861047-dbb2-40eb-b30f-9b7c03b9c4d2">
            <path
               style="stroke:none"
               d=""
               id="id-5cb907eb-45e6-4628-b5c2-44bba73e25e3" />
          </symbol>
          <symbol
             overflow="visible"
             id="id-cc1c0fd8-9938-4c08-93f1-f60480aea9e7">
            <path
               style="stroke:none"
               d="m 10.65625,-6.125 c 0.0625,-0.171875 0.0625,-0.1875 0.375,-0.21875 C 11.234375,-6.375 11.4375,-6.375 11.609375,-6.375 v -0.46875 c -0.28125,0.015625 -0.625,0.03125 -1.078125,0.03125 -0.375,0 -0.984375,0 -1.34375,-0.03125 V -6.375 c 0.25,0 0.71875,0 1.015625,0.109375 L 8.484375,-1.796875 6.71875,-6.375 h 0.953125 v -0.46875 c -0.375,0.03125 -1.3125,0.03125 -1.734375,0.03125 -0.390625,0 -1.1875,0 -1.53125,-0.03125 V -6.375 H 5.265625 L 5.671875,-5.3125 4.3125,-1.796875 2.546875,-6.375 h 0.96875 V -6.84375 C 3.125,-6.8125 2.1875,-6.8125 1.765625,-6.8125 c -0.390625,0 -1.171875,0 -1.53125,-0.03125 V -6.375 H 1.09375 l 2.390625,6.203125 c 0.0625,0.15625 0.109375,0.25 0.359375,0.25 0.25,0 0.28125,-0.09375 0.34375,-0.25 l 1.734375,-4.5 1.734375,4.5 c 0.0625,0.15625 0.09375,0.25 0.34375,0.25 0.25,0 0.296875,-0.09375 0.359375,-0.25 z m 0,0"
               id="id-842936c8-3eca-43b3-9632-df3770bdaf58" />
          </symbol>
          <symbol
             overflow="visible"
             id="id-c834680b-1ad1-4565-9fcd-1397c870b802">
            <path
               style="stroke:none"
               d=""
               id="id-af84d408-23a5-4fd6-9685-1f3ce7cd6791" />
          </symbol>
          <symbol
             overflow="visible"
             id="id-8dfeccdc-6829-43b1-b089-5508f4e0801e">
            <path
               style="stroke:none"
               d="m 1.4375,-4.96875 c 0,-0.09375 0,-0.25 -0.171875,-0.25 -0.171875,0 -0.171875,0.171875 -0.171875,0.296875 V 1.4375 c 0,0.125 0,0.296875 0.171875,0.296875 0.171875,0 0.171875,-0.15625 0.171875,-0.265625 z m 1.53125,0.046875 c 0,-0.125 0,-0.296875 -0.171875,-0.296875 -0.15625,0 -0.15625,0.15625 -0.15625,0.25 v 6.4375 c 0,0.109375 0,0.265625 0.15625,0.265625 0.171875,0 0.171875,-0.171875 0.171875,-0.296875 z m 0,0"
               id="id-5937d2e3-bb96-4d06-8fac-e4d9ba24362a" />
          </symbol>
          <symbol
             overflow="visible"
             id="id-890225f7-7067-48f5-b5f7-0f78163928c4">
            <path
               style="stroke:none"
               d="M 1.578125,-1.734375 C 1.578125,-2 1.375,-2.140625 1.1875,-2.140625 c -0.234375,0 -0.40625,0.1875 -0.40625,0.390625 0,0.25 0.203125,0.40625 0.390625,0.40625 0.234375,0 0.40625,-0.1875 0.40625,-0.390625 z m 0,0"
               id="id-b787b3f5-606e-4d4f-ac6f-679cef02d36d" />
          </symbol>
          <symbol
             overflow="visible"
             id="id-65c62eb8-6f49-4bf5-ad2b-20e7227d5c0e">
            <path
               style="stroke:none"
               d=""
               id="id-51e3e47e-6f58-439d-b3ae-919a32a454ab" />
          </symbol>
          <symbol
             overflow="visible"
             id="id-fba4aa25-9156-45b8-8f0e-11bc5314a4b4">
            <path
               style="stroke:none"
               d="m 0.84375,-0.4375 c -0.015625,0.09375 -0.0625,0.265625 -0.0625,0.28125 0,0.15625 0.125,0.21875 0.234375,0.21875 0.125,0 0.234375,-0.078125 0.28125,-0.140625 0.03125,-0.0625 0.078125,-0.296875 0.125,-0.4375 0.03125,-0.125 0.109375,-0.453125 0.140625,-0.625 0.046875,-0.15625 0.09375,-0.3125 0.125,-0.46875 0.078125,-0.28125 0.09375,-0.34375 0.296875,-0.625 C 2.171875,-2.515625 2.5,-2.875 3.03125,-2.875 c 0.390625,0 0.40625,0.359375 0.40625,0.484375 0,0.421875 -0.296875,1.1875 -0.40625,1.484375 -0.078125,0.203125 -0.109375,0.265625 -0.109375,0.375 0,0.375 0.296875,0.59375 0.65625,0.59375 0.703125,0 1,-0.953125 1,-1.0625 0,-0.09375 -0.078125,-0.09375 -0.109375,-0.09375 -0.09375,0 -0.09375,0.046875 -0.125,0.125 C 4.1875,-0.40625 3.875,-0.125 3.609375,-0.125 c -0.15625,0 -0.1875,-0.09375 -0.1875,-0.25 0,-0.15625 0.046875,-0.25 0.171875,-0.5625 0.078125,-0.21875 0.359375,-0.953125 0.359375,-1.34375 0,-0.671875 -0.53125,-0.796875 -0.90625,-0.796875 -0.578125,0 -0.96875,0.359375 -1.171875,0.640625 -0.046875,-0.484375 -0.453125,-0.640625 -0.75,-0.640625 -0.296875,0 -0.453125,0.21875 -0.546875,0.375 -0.15625,0.265625 -0.25,0.65625 -0.25,0.703125 0,0.078125 0.09375,0.078125 0.125,0.078125 0.09375,0 0.09375,-0.015625 0.140625,-0.203125 0.109375,-0.40625 0.25,-0.75 0.515625,-0.75 0.1875,0 0.234375,0.15625 0.234375,0.34375 0,0.125 -0.0625,0.390625 -0.125,0.578125 -0.046875,0.1875 -0.109375,0.46875 -0.140625,0.625 z m 0,0"
               id="id-f3d5fd40-36c9-4f6b-8d2e-15107803defc" />
          </symbol>
        </g>
        <clipPath
           id="id-a0005035-5749-41a9-ba40-f5db39cc2f3b">
          <path
             d="M 148.91406,167 H 343.18359 V 286.39453 H 148.91406 Z m 0,0"
             id="id-aec41571-2b50-44fe-a55e-e80dde059ca5" />
        </clipPath>
        <clipPath
           id="id-12a0b5cc-5c0e-459b-a507-a5353837136f">
          <path
             d="M 148.91406,174 H 343.18359 V 286.39453 H 148.91406 Z m 0,0"
             id="id-734d99de-a3f5-4ca3-9b07-740d88f67209" />
        </clipPath>
      </defs>
      <g
         id="id-e240f4d9-38cb-4fbb-ab71-1d6af3f22425"
         transform="translate(-148.914, -125)">
        <path
           style="fill:none;stroke:#000000;stroke-width:0.3985;stroke-linecap:butt;stroke-linejoin:miter;stroke-miterlimit:10;stroke-opacity:1"
           d="M 64.759062,-5.3125e-4 H 257.03641"
           transform="matrix(1 0 0 -1 84.155 286.394)"
           id="id-22c8659a-1513-4afc-9469-d39428bf14f8" />
        <path
           style="fill:#000000;fill-opacity:1;fill-rule:nonzero;stroke:none"
           d="m 343.18359,286.39453 -3.1875,-1.59375 1.19532,1.59375 -1.19532,1.59375"
           id="id-a1d4343a-e372-45ad-8830-e0d3a21acecc" />
        <path
           style="fill:none;stroke:#000000;stroke-width:0.3985;stroke-linecap:butt;stroke-linejoin:miter;stroke-miterlimit:10;stroke-opacity:1"
           d="M 161.89187,-5.3125e-4 V 159.40181"
           transform="matrix(1 0 0 -1 84.155 286.394)"
           id="id-fdd23eb4-0f53-4e99-a87a-ae98d791a0dc" />
        <path
           style="fill:#000000;fill-opacity:1;fill-rule:nonzero;stroke:none"
           d="m 246.04687,125 -1.59375,3.1875 1.59375,-1.19531 1.59375,1.19531"
           id="id-8ff54e9c-9849-485a-99b6-0335d08e3f16" />
        <g
           clip-path="url(#id-a0005035-5749-41a9-ba40-f5db39cc2f3b)"
           clip-rule="nonzero"
           id="id-b784e808-677e-4133-a9f8-cebbab4648de">
          <path
             style="fill:none;stroke:#000000;stroke-width:0.79701;stroke-linecap:butt;stroke-linejoin:miter;stroke-miterlimit:10;stroke-opacity:1"
             d="m 0.00125,-5.3125e-4 h 52.0625 L 53.692656,0.003375 h 4.878906 l 1.628907,0.00390625 h 1.625 l 1.628906,0.00390625 1.625,0.0039063 1.628906,0.0039062 1.625,0.0078125 1.628906,0.0078125 1.628907,0.0117188 1.625,0.0117187 1.628906,0.0195313 1.625,0.0234372 1.628906,0.03125 1.625,0.039063 1.628906,0.050781 1.625,0.0625 1.628907,0.074219 1.625,0.097656 1.628906,0.121094 1.625,0.148437 1.628906,0.179688 1.625,0.21875 1.628906,0.265625 1.625,0.320312 1.628907,0.382813 1.625,0.453125 1.628906,0.539062 1.625,0.636719 1.62891,0.742188 1.625,0.859375 1.6289,1 1.625,1.144531 1.62891,1.3125 1.625,1.488281 1.62891,1.675781 1.6289,1.882813 1.625,2.101562 1.62891,2.335938 1.625,2.558594 1.6289,2.808593 1.625,3.035157 1.62891,3.292968 1.625,3.519532 1.62891,3.746093 1.625,3.960938 1.6289,4.152344 1.625,4.316406 1.62891,4.445312 1.625,4.550782 1.6289,4.628906 1.625,4.628906 1.62891,4.617188 1.625,4.53125 1.62891,4.402343 1.625,4.214844 1.6289,3.984375 1.625,3.703125 1.62891,3.355469 1.625,2.984375 1.62891,2.546876 1.6289,2.08984 1.625,1.59375 1.62891,1.07422 1.625,0.53906 h 1.6289 l 1.625,-0.53906 1.62891,-1.07422 1.625,-1.59375 1.62891,-2.07812 1.625,-2.550784 1.6289,-2.96875 1.625,-3.371093 1.62891,-3.6875 1.625,-3.984375 1.62891,-4.21875 1.625,-4.402344 1.6289,-4.53125 1.625,-4.617188 1.62891,-4.625 1.625,-4.628906 1.6289,-4.550781 1.625,-4.445313 1.62891,-4.316406 1.625,-4.15625 1.62891,-3.957031 1.625,-3.746094 1.6289,-3.519531 1.62891,-3.292969 1.625,-3.046875 1.62891,-2.808594 1.625,-2.5625 1.6289,-2.324218 1.625,-2.109375 1.62891,-1.882813 1.625,-1.679687 1.6289,-1.488282 1.625,-1.3125 1.62891,-1.148437 1.625,-0.996094 1.62891,-0.863281 1.625,-0.742188 1.6289,-0.636718 1.625,-0.539063 1.62891,-0.457031 1.625,-0.382813 1.62891,-0.320312 1.625,-0.265625 1.6289,-0.21875 1.625,-0.179688 1.62891,-0.148437 1.625,-0.121094 1.6289,-0.09375 1.62891,-0.078125 1.625,-0.0625 1.62891,-0.050781 1.625,-0.039063 1.6289,-0.03125 1.625,-0.0234372 1.62891,-0.0195313 1.625,-0.0117187 1.62891,-0.0117188 1.625,-0.0078125 1.6289,-0.0078125 1.625,-0.0039062 1.62891,-0.0039063 1.625,-0.00390625 h 1.62891 l 1.625,-0.00390625 h 4.88281 l 1.625,-0.00390625 h 52.0664"
             transform="matrix(1 0 0 -1 84.155 286.394)"
             id="id-f18bf0e0-6b12-45e4-94ae-e12705727f39" />
        </g>
        <g
           clip-path="url(#id-12a0b5cc-5c0e-459b-a507-a5353837136f)"
           clip-rule="nonzero"
           id="id-3fad94d3-3a4e-4faa-b4f0-30da81d2fef5">
          <path
             style="fill:none;stroke:#ff0000;stroke-width:0.79701;stroke-linecap:butt;stroke-linejoin:miter;stroke-miterlimit:10;stroke-opacity:1"
             d="m 0.00125,-5.3125e-4 h 149.68359 l 1.62891,0.00390625 1.625,0.046875 1.62891,0.59375 1.6289,4.214844 1.625,17.265625 1.62891,38.726562 1.625,40.121099 1.6289,0.1289 1.625,-40.003905 1.62891,-38.820312 1.625,-17.375 1.62891,-4.25 1.625,-0.601563 1.6289,-0.046875 1.625,-0.00390625 h 149.6875"
             transform="matrix(1 0 0 -1 84.155 286.394)"
             id="id-02c49c2f-e95a-459f-acdc-e6557b7cf127" />
        </g>
        <g
           style="fill:#000000;fill-opacity:1"
           id="id-043e9467-c9eb-4040-a6a8-c1d9d7d8d1bf">
          <g
             transform="translate(211.094, 300.319)"
             id="g1246">
            <path
               style="stroke:none"
               d="m 6.5625,-2.296875 c 0.171875,0 0.359375,0 0.359375,-0.203125 0,-0.1875 -0.1875,-0.1875 -0.359375,-0.1875 H 1.171875 c -0.171875,0 -0.34375,0 -0.34375,0.1875 0,0.203125 0.171875,0.203125 0.34375,0.203125 z m 0,0"
               id="id-0fce2857-a3aa-43cd-8d67-55ec1de37875" />
          </g>
        </g>
        <g
           style="fill:#000000;fill-opacity:1"
           id="id-ad97e422-7ac1-404c-91f4-396bea1a1e5e">
          <g
             transform="translate(220.503, 300.319)"
             id="g1250">
            <path
               style="stroke:none"
               d="M 1.765625,-6.921875 0.328125,-6.8125 V -6.5 c 0.703125,0 0.78125,0.0625 0.78125,0.5625 V -0.75 c 0,0.4375 -0.109375,0.4375 -0.78125,0.4375 V 0 C 0.65625,-0.015625 1.1875,-0.03125 1.4375,-0.03125 c 0.25,0 0.734375,0.015625 1.109375,0.03125 v -0.3125 c -0.671875,0 -0.78125,0 -0.78125,-0.4375 z m 0,0"
               id="id-3c26d0d9-a5de-4ae9-8eb2-f71fc104be1c" />
          </g>
          <g
             transform="translate(223.271, 300.319)"
             id="g1253">
            <path
               style="stroke:none"
               d="M 4.6875,-2.140625 C 4.6875,-3.40625 3.703125,-4.46875 2.5,-4.46875 c -1.25,0 -2.21875,1.09375 -2.21875,2.328125 0,1.296875 1.03125,2.25 2.203125,2.25 1.203125,0 2.203125,-0.984375 2.203125,-2.25 z m -2.1875,2 c -0.4375,0 -0.875,-0.203125 -1.140625,-0.671875 -0.25,-0.4375 -0.25,-1.046875 -0.25,-1.40625 0,-0.390625 0,-0.921875 0.234375,-1.359375 C 1.609375,-4.03125 2.078125,-4.25 2.484375,-4.25 c 0.4375,0 0.859375,0.21875 1.125,0.65625 0.265625,0.421875 0.265625,1 0.265625,1.375 0,0.359375 0,0.90625 -0.21875,1.34375 C 3.421875,-0.421875 2.984375,-0.140625 2.5,-0.140625 Z m 0,0"
               id="id-77bd002e-4a88-4b88-b41b-b3dd4db2559e" />
          </g>
          <g
             transform="translate(228.252, 300.319)"
             id="g1256">
            <path
               style="stroke:none"
               d="m 2.21875,-1.71875 c -0.875,0 -0.875,-1 -0.875,-1.21875 0,-0.265625 0.015625,-0.59375 0.15625,-0.84375 0.078125,-0.109375 0.3125,-0.390625 0.71875,-0.390625 0.859375,0 0.859375,0.984375 0.859375,1.21875 0,0.265625 0,0.59375 -0.15625,0.84375 C 2.84375,-2 2.609375,-1.71875 2.21875,-1.71875 Z M 1.0625,-1.328125 c 0,-0.03125 0,-0.265625 0.15625,-0.46875 0.390625,0.28125 0.8125,0.3125 1,0.3125 0.921875,0 1.609375,-0.6875 1.609375,-1.453125 0,-0.375 -0.15625,-0.734375 -0.40625,-0.96875 C 3.78125,-4.25 4.140625,-4.296875 4.3125,-4.296875 c 0.03125,0 0.078125,0 0.109375,0.015625 C 4.3125,-4.25 4.25,-4.140625 4.25,-4.015625 c 0,0.171875 0.140625,0.28125 0.296875,0.28125 0.09375,0 0.28125,-0.0625 0.28125,-0.296875 0,-0.171875 -0.109375,-0.484375 -0.5,-0.484375 -0.203125,0 -0.640625,0.0625 -1.0625,0.46875 C 2.84375,-4.375 2.4375,-4.40625 2.21875,-4.40625 c -0.9375,0 -1.625,0.6875 -1.625,1.453125 0,0.4375 0.21875,0.8125 0.46875,1.03125 -0.125,0.140625 -0.3125,0.46875 -0.3125,0.828125 0,0.3125 0.140625,0.6875 0.453125,0.890625 -0.609375,0.15625 -0.921875,0.59375 -0.921875,0.984375 0,0.71875 0.984375,1.265625 2.203125,1.265625 1.171875,0 2.203125,-0.5 2.203125,-1.28125 0,-0.34375 -0.125,-0.859375 -0.640625,-1.140625 -0.53125,-0.265625 -1.109375,-0.265625 -1.71875,-0.265625 -0.25,0 -0.671875,0 -0.75,-0.015625 C 1.265625,-0.703125 1.0625,-1 1.0625,-1.328125 Z M 2.5,1.828125 c -1.015625,0 -1.703125,-0.515625 -1.703125,-1.046875 0,-0.453125 0.375,-0.828125 0.8125,-0.84375 h 0.59375 c 0.859375,0 1.96875,0 1.96875,0.84375 0,0.546875 -0.703125,1.046875 -1.671875,1.046875 z m 0,0"
               id="id-fcba992d-eff6-4635-9ac3-2ae6fe40a1f0" />
          </g>
        </g>
        <g
           style="fill:#000000;fill-opacity:1"
           id="id-50639a5f-eeb2-428a-8920-94455970f608">
          <g
             transform="translate(235.032, 300.319)"
             id="g1260">
            <path
               style="stroke:none"
               d="m 7.578125,-6.921875 c 0,-0.03125 -0.015625,-0.109375 -0.109375,-0.109375 -0.03125,0 -0.046875,0.015625 -0.15625,0.125 L 6.625,-6.140625 C 6.53125,-6.28125 6.078125,-7.03125 4.96875,-7.03125 2.734375,-7.03125 0.5,-4.828125 0.5,-2.515625 c 0,1.59375 1.109375,2.734375 2.71875,2.734375 0.4375,0 0.890625,-0.09375 1.25,-0.234375 0.5,-0.203125 0.6875,-0.40625 0.859375,-0.609375 0.09375,0.25 0.359375,0.609375 0.453125,0.609375 0.046875,0 0.078125,-0.03125 0.078125,-0.03125 C 5.875,-0.0625 5.96875,-0.453125 6.015625,-0.65625 l 0.1875,-0.765625 C 6.25,-1.59375 6.296875,-1.765625 6.34375,-1.9375 c 0.109375,-0.4375 0.109375,-0.46875 0.6875,-0.46875 0.046875,0 0.15625,-0.015625 0.15625,-0.203125 0,-0.078125 -0.046875,-0.109375 -0.125,-0.109375 -0.234375,0 -0.828125,0.03125 -1.046875,0.03125 -0.3125,0 -1.09375,-0.03125 -1.40625,-0.03125 -0.078125,0 -0.203125,0 -0.203125,0.203125 0,0.109375 0.078125,0.109375 0.296875,0.109375 0.015625,0 0.296875,0 0.53125,0.015625 0.265625,0.03125 0.3125,0.0625 0.3125,0.1875 0,0.09375 -0.109375,0.53125 -0.21875,0.90625 -0.28125,1.09375 -1.5625,1.203125 -1.921875,1.203125 -0.953125,0 -2,-0.5625 -2,-2.09375 0,-0.3125 0.09375,-1.953125 1.140625,-3.25 0.546875,-0.671875 1.515625,-1.28125 2.5,-1.28125 1.015625,0 1.609375,0.765625 1.609375,1.921875 0,0.40625 -0.03125,0.40625 -0.03125,0.515625 0,0.09375 0.109375,0.09375 0.140625,0.09375 0.125,0 0.125,-0.015625 0.1875,-0.203125 z m 0,0"
               id="id-59fbe288-6242-4542-bd07-10d8e4d70f96" />
          </g>
          <g
             transform="translate(242.866, 300.319)"
             id="g1263">
            <path
               style="stroke:none"
               d="M 9.234375,-6.046875 C 9.328125,-6.40625 9.34375,-6.5 10.09375,-6.5 c 0.21875,0 0.3125,0 0.3125,-0.203125 0,-0.109375 -0.09375,-0.109375 -0.265625,-0.109375 h -1.3125 c -0.265625,0 -0.28125,0 -0.390625,0.1875 L 4.796875,-0.9375 4.015625,-6.578125 C 3.984375,-6.8125 3.96875,-6.8125 3.703125,-6.8125 H 2.34375 c -0.1875,0 -0.296875,0 -0.296875,0.1875 0,0.125 0.09375,0.125 0.28125,0.125 0.140625,0 0.3125,0.015625 0.4375,0.015625 0.15625,0.03125 0.21875,0.046875 0.21875,0.171875 0,0.03125 -0.015625,0.0625 -0.046875,0.1875 l -1.265625,5.0625 c -0.09375,0.40625 -0.265625,0.71875 -1.078125,0.75 -0.046875,0 -0.171875,0.015625 -0.171875,0.1875 0,0.09375 0.0625,0.125 0.140625,0.125 0.3125,0 0.65625,-0.03125 1,-0.03125 C 1.890625,-0.03125 2.25,0 2.578125,0 c 0.046875,0 0.1875,0 0.1875,-0.203125 0,-0.109375 -0.109375,-0.109375 -0.1875,-0.109375 -0.5625,0 -0.671875,-0.203125 -0.671875,-0.4375 0,-0.0625 0,-0.125 0.03125,-0.234375 L 3.296875,-6.40625 H 3.3125 l 0.859375,6.171875 C 4.1875,-0.109375 4.203125,0 4.3125,0 4.421875,0 4.484375,-0.109375 4.53125,-0.171875 l 4.03125,-6.3125 h 0.015625 l -1.4375,5.703125 c -0.09375,0.390625 -0.109375,0.46875 -0.90625,0.46875 -0.15625,0 -0.265625,0 -0.265625,0.1875 C 5.96875,0 6.078125,0 6.109375,0 6.390625,0 7.0625,-0.03125 7.34375,-0.03125 7.75,-0.03125 8.1875,0 8.59375,0 8.65625,0 8.78125,0 8.78125,-0.203125 8.78125,-0.3125 8.6875,-0.3125 8.5,-0.3125 c -0.359375,0 -0.640625,0 -0.640625,-0.171875 0,-0.046875 0,-0.0625 0.046875,-0.25 z m 0,0"
               id="id-9b60222e-cfc5-40f7-8601-4f405a678434" />
          </g>
        </g>
        <g
           style="fill:#000000;fill-opacity:1"
           id="id-9f75a183-1b9c-48ac-bff5-db7136cc34d9">
          <g
             transform="translate(253.616, 300.319)"
             id="g1267">
            <path
               style="stroke:none"
               d="m 3.296875,2.390625 c 0,-0.03125 0,-0.046875 -0.171875,-0.21875 C 1.890625,0.921875 1.5625,-0.96875 1.5625,-2.5 c 0,-1.734375 0.375,-3.46875 1.609375,-4.703125 0.125,-0.125 0.125,-0.140625 0.125,-0.171875 0,-0.078125 -0.03125,-0.109375 -0.09375,-0.109375 -0.109375,0 -1,0.6875 -1.59375,1.953125 -0.5,1.09375 -0.625,2.203125 -0.625,3.03125 0,0.78125 0.109375,1.984375 0.65625,3.125 C 2.25,1.84375 3.09375,2.5 3.203125,2.5 c 0.0625,0 0.09375,-0.03125 0.09375,-0.109375 z m 0,0"
               id="id-4896d2d5-74be-49f2-862e-3e5049405e3b" />
          </g>
        </g>
        <g
           style="fill:#000000;fill-opacity:1"
           id="id-2d32dcd5-2845-425f-97db-39b8c6cddc72">
          <g
             transform="translate(257.491, 300.319)"
             id="g1271">
            <path
               style="stroke:none"
               d="m 10.65625,-6.125 c 0.0625,-0.171875 0.0625,-0.1875 0.375,-0.21875 C 11.234375,-6.375 11.4375,-6.375 11.609375,-6.375 v -0.46875 c -0.28125,0.015625 -0.625,0.03125 -1.078125,0.03125 -0.375,0 -0.984375,0 -1.34375,-0.03125 V -6.375 c 0.25,0 0.71875,0 1.015625,0.109375 L 8.484375,-1.796875 6.71875,-6.375 h 0.953125 v -0.46875 c -0.375,0.03125 -1.3125,0.03125 -1.734375,0.03125 -0.390625,0 -1.1875,0 -1.53125,-0.03125 V -6.375 H 5.265625 L 5.671875,-5.3125 4.3125,-1.796875 2.546875,-6.375 h 0.96875 V -6.84375 C 3.125,-6.8125 2.1875,-6.8125 1.765625,-6.8125 c -0.390625,0 -1.171875,0 -1.53125,-0.03125 V -6.375 H 1.09375 l 2.390625,6.203125 c 0.0625,0.15625 0.109375,0.25 0.359375,0.25 0.25,0 0.28125,-0.09375 0.34375,-0.25 l 1.734375,-4.5 1.734375,4.5 c 0.0625,0.15625 0.09375,0.25 0.34375,0.25 0.25,0 0.296875,-0.09375 0.359375,-0.25 z m 0,0"
               id="id-bc06a1b6-4448-444d-8d4d-75d1e17bf895" />
          </g>
        </g>
        <g
           style="fill:#000000;fill-opacity:1"
           id="id-c8b60537-ae8d-48f2-85b0-21c314441679">
          <g
             transform="translate(269.494, 295.144)"
             id="g1275">
            <path
               style="stroke:none"
               d="m 1.4375,-4.96875 c 0,-0.09375 0,-0.25 -0.171875,-0.25 -0.171875,0 -0.171875,0.171875 -0.171875,0.296875 V 1.4375 c 0,0.125 0,0.296875 0.171875,0.296875 0.171875,0 0.171875,-0.15625 0.171875,-0.265625 z m 1.53125,0.046875 c 0,-0.125 0,-0.296875 -0.171875,-0.296875 -0.15625,0 -0.15625,0.15625 -0.15625,0.25 v 6.4375 c 0,0.109375 0,0.265625 0.15625,0.265625 0.171875,0 0.171875,-0.171875 0.171875,-0.296875 z m 0,0"
               id="id-58baebd6-7a8f-47bf-a884-5af26aff7b2e" />
          </g>
        </g>
        <g
           style="fill:#000000;fill-opacity:1"
           id="id-4f9d7cd6-a23a-4e4f-a7ff-fb2b0339b261">
          <g
             transform="translate(269.335, 301.726)"
             id="g1279">
            <path
               style="stroke:none"
               d="M 1.578125,-1.734375 C 1.578125,-2 1.375,-2.140625 1.1875,-2.140625 c -0.234375,0 -0.40625,0.1875 -0.40625,0.390625 0,0.25 0.203125,0.40625 0.390625,0.40625 0.234375,0 0.40625,-0.1875 0.40625,-0.390625 z m 0,0"
               id="id-37b8bfa5-029f-4e84-a584-df0dd14448d9" />
          </g>
        </g>
        <g
           style="fill:#000000;fill-opacity:1"
           id="id-2696953e-e6cf-446f-bf40-e66a163b1850">
          <g
             transform="translate(271.701, 301.726)"
             id="g1283">
            <path
               style="stroke:none"
               d="m 0.84375,-0.4375 c -0.015625,0.09375 -0.0625,0.265625 -0.0625,0.28125 0,0.15625 0.125,0.21875 0.234375,0.21875 0.125,0 0.234375,-0.078125 0.28125,-0.140625 0.03125,-0.0625 0.078125,-0.296875 0.125,-0.4375 0.03125,-0.125 0.109375,-0.453125 0.140625,-0.625 0.046875,-0.15625 0.09375,-0.3125 0.125,-0.46875 0.078125,-0.28125 0.09375,-0.34375 0.296875,-0.625 C 2.171875,-2.515625 2.5,-2.875 3.03125,-2.875 c 0.390625,0 0.40625,0.359375 0.40625,0.484375 0,0.421875 -0.296875,1.1875 -0.40625,1.484375 -0.078125,0.203125 -0.109375,0.265625 -0.109375,0.375 0,0.375 0.296875,0.59375 0.65625,0.59375 0.703125,0 1,-0.953125 1,-1.0625 0,-0.09375 -0.078125,-0.09375 -0.109375,-0.09375 -0.09375,0 -0.09375,0.046875 -0.125,0.125 C 4.1875,-0.40625 3.875,-0.125 3.609375,-0.125 c -0.15625,0 -0.1875,-0.09375 -0.1875,-0.25 0,-0.15625 0.046875,-0.25 0.171875,-0.5625 0.078125,-0.21875 0.359375,-0.953125 0.359375,-1.34375 0,-0.671875 -0.53125,-0.796875 -0.90625,-0.796875 -0.578125,0 -0.96875,0.359375 -1.171875,0.640625 -0.046875,-0.484375 -0.453125,-0.640625 -0.75,-0.640625 -0.296875,0 -0.453125,0.21875 -0.546875,0.375 -0.15625,0.265625 -0.25,0.65625 -0.25,0.703125 0,0.078125 0.09375,0.078125 0.125,0.078125 0.09375,0 0.09375,-0.015625 0.140625,-0.203125 0.109375,-0.40625 0.25,-0.75 0.515625,-0.75 0.1875,0 0.234375,0.15625 0.234375,0.34375 0,0.125 -0.0625,0.390625 -0.125,0.578125 -0.046875,0.1875 -0.109375,0.46875 -0.140625,0.625 z m 0,0"
               id="id-ebd4ca9e-c871-4165-9545-e7944dd65288" />
          </g>
        </g>
        <g
           style="fill:#000000;fill-opacity:1"
           id="id-350d1345-533c-482c-82cb-d59325805c5e">
          <g
             transform="translate(277.124, 300.319)"
             id="g1287">
            <path
               style="stroke:none"
               d="m 2.875,-2.5 c 0,-0.765625 -0.109375,-1.96875 -0.65625,-3.109375 -0.59375,-1.21875 -1.453125,-1.875 -1.546875,-1.875 -0.0625,0 -0.109375,0.046875 -0.109375,0.109375 0,0.03125 0,0.046875 0.1875,0.234375 0.984375,0.984375 1.546875,2.5625 1.546875,4.640625 0,1.71875 -0.359375,3.46875 -1.59375,4.71875 C 0.5625,2.34375 0.5625,2.359375 0.5625,2.390625 0.5625,2.453125 0.609375,2.5 0.671875,2.5 0.765625,2.5 1.671875,1.8125 2.25,0.546875 2.765625,-0.546875 2.875,-1.65625 2.875,-2.5 Z m 0,0"
               id="id-67153763-6eec-4b26-a6da-cb9a956079aa" />
          </g>
        </g>
      </g>
    </g>
  </g>
</svg>
